<svg xmlns="http://www.w3.org/2000/svg" width="1200" height="630" viewBox="0 0 1200 630">
  <defs><linearGradient id="bg" x1="0" y1="0" x2="1" y2="1"><stop stop-color="#17232b"/><stop offset="1" stop-color="#263d48"/></linearGradient></defs>
  <rect width="1200" height="630" fill="url(#bg)"/>
  <text x="72" y="80" fill="#f0523a" font-family="system-ui, sans-serif" font-size="18" font-weight="700" letter-spacing="4">ENGINEERING / STREAMS</text>
  <text x="72" y="552" fill="#f9f5ed" font-family="system-ui, sans-serif" font-size="42" font-weight="700">EVENT-DRIVEN ARCHITECTURE</text>
  <g stroke="#f0523a" stroke-width="4" fill="none" opacity=".9"><path d="M140 300h180l80-90h150l80 90h150l80-100h170"/><path d="M140 360h140l70 80h170l80-80h150l80 80h160"/></g>
  <g fill="#f9f5ed" stroke="#f0523a" stroke-width="5"><circle cx="140" cy="300" r="26"/><circle cx="320" cy="300" r="26"/><circle cx="400" cy="210" r="26"/><circle cx="550" cy="210" r="26"/><circle cx="630" cy="300" r="26"/><circle cx="780" cy="300" r="26"/><circle cx="860" cy="200" r="26"/><circle cx="1030" cy="200" r="26"/><circle cx="280" cy="360" r="26"/><circle cx="350" cy="440" r="26"/><circle cx="520" cy="440" r="26"/><circle cx="600" cy="360" r="26"/><circle cx="750" cy="360" r="26"/><circle cx="830" cy="440" r="26"/><circle cx="990" cy="440" r="26"/></g><g fill="#f0523a"><circle cx="140" cy="300" r="9"/><circle cx="550" cy="210" r="9"/><circle cx="780" cy="300" r="9"/><circle cx="1030" cy="200" r="9"/></g>
</svg>
